<?xml version="1.0" encoding="UTF-8" standalone="no"?>
<!-- Created with Inkscape (http://www.inkscape.org/) -->

<svg
   width="139.52139mm"
   height="25.003151mm"
   viewBox="0 0 139.52139 25.003151"
   version="1.1"
   id="svg1"
   xmlns:xlink="http://www.w3.org/1999/xlink"
   xmlns="http://www.w3.org/2000/svg"
   xmlns:svg="http://www.w3.org/2000/svg">
  <defs
     id="defs1">
    <linearGradient
       id="linearGradient5">
      <stop
         style="stop-color:#00658d;stop-opacity:1;"
         offset="0"
         id="stop5" />
      <stop
         style="stop-color:#11c59f;stop-opacity:1;"
         offset="1"
         id="stop6" />
    </linearGradient>
    <linearGradient
       xlink:href="#linearGradient5"
       id="linearGradient6"
       x1="-73.265739"
       y1="353.91663"
       x2="190.77692"
       y2="397.47888"
       gradientUnits="userSpaceOnUse" />
    <linearGradient
       xlink:href="#linearGradient5"
       id="linearGradient2"
       gradientUnits="userSpaceOnUse"
       x1="-73.265739"
       y1="353.91663"
       x2="190.77692"
       y2="397.47888" />
    <linearGradient
       xlink:href="#linearGradient5"
       id="linearGradient3"
       gradientUnits="userSpaceOnUse"
       x1="-73.265739"
       y1="353.91663"
       x2="190.77692"
       y2="397.47888" />
    <linearGradient
       xlink:href="#linearGradient5"
       id="linearGradient4"
       gradientUnits="userSpaceOnUse"
       x1="-73.265739"
       y1="353.91663"
       x2="190.77692"
       y2="397.47888" />
    <linearGradient
       xlink:href="#linearGradient5"
       id="linearGradient7"
       gradientUnits="userSpaceOnUse"
       x1="-73.265739"
       y1="353.91663"
       x2="190.77692"
       y2="397.47888" />
    <linearGradient
       xlink:href="#linearGradient5"
       id="linearGradient8"
       gradientUnits="userSpaceOnUse"
       x1="-73.265739"
       y1="353.91663"
       x2="190.77692"
       y2="397.47888" />
    <linearGradient
       xlink:href="#linearGradient5"
       id="linearGradient9"
       gradientUnits="userSpaceOnUse"
       x1="-73.265739"
       y1="353.91663"
       x2="190.77692"
       y2="397.47888" />
    <linearGradient
       xlink:href="#linearGradient5"
       id="linearGradient10"
       gradientUnits="userSpaceOnUse"
       x1="-73.265739"
       y1="353.91663"
       x2="190.77692"
       y2="397.47888" />
  </defs>
  <g
     id="layer1"
     transform="translate(-35.239308,-82.897352)">
    <g
       id="g40"
       style="fill:url(#linearGradient6);fill-opacity:1"
       transform="matrix(0.5,0,0,0.5,79.372237,-90.888414)">
      <path
         d="m -73.265739,347.57154 v 12.69018 a 20,20 0 0 0 -0.365352,-0.216 20,20 0 0 0 -1.119311,-0.57051 20,20 0 0 0 -1.152902,-0.4992 20,20 0 0 0 -1.182356,-0.42529 20,20 0 0 0 -1.206645,-0.35037 20,20 0 0 0 -1.226282,-0.2744 20,20 0 0 0 -1.240751,-0.19637 20,20 0 0 0 -1.25057,-0.11834 20,20 0 0 0 -1.256254,-0.0398 20,20 0 0 0 -1.743046,0.0765 20,20 0 0 0 -1.72961,0.22738 20,20 0 0 0 -1.527039,0.40927 v 5.2e-4 10.62623 a 10,10 0 0 1 1.173055,-0.57878 10,10 0 0 1 1.238685,-0.42013 10,10 0 0 1 1.283125,-0.25528 10,10 0 0 1 1.30483,-0.0853 10,10 0 0 1 0.871782,0.0377 10,10 0 0 1 0.865063,0.1142 10,10 0 0 1 0.851628,0.18862 10,10 0 0 1 0.83199,0.26252 10,10 0 0 1 0.806153,0.33383 10,10 0 0 1 0.773596,0.40256 10,10 0 0 1 0.735872,0.4687 10,10 0 0 1 0.691948,0.53123 10,10 0 0 1 0.643371,0.58963 10,10 0 0 1 0.589112,0.64286 10,10 0 0 1 0.531233,0.69246 10,10 0 0 1 0.468706,0.73536 10,10 0 0 1 0.403076,0.77411 10,10 0 0 1 0.333829,0.80615 10,10 0 0 1 0.262,0.83199 10,10 0 0 1 0.189136,0.85163 10,10 0 0 1 0.113688,0.86455 10,10 0 0 1 0.03824,0.87178 20,20 0 0 0 0.303858,3.47265 20,20 0 0 0 0,5.2e-4 20,20 0 0 0 0.90227,3.36724 20,20 0 0 0 1.473295,3.15949 20,20 0 0 0 1.999878,2.85564 20,20 0 0 0 2.464966,2.46549 20,20 0 0 0 2.85564,1.99936 20,20 0 0 0 3.159497,1.47329 20,20 0 0 0 3.367236,0.90227 20,20 0 0 0 5.17e-4,0 20,20 0 0 0 3.472656,0.30386 20,20 0 0 0 3.473173,-0.30386 20,20 0 0 0 3.367237,-0.90227 20,20 0 0 0 3.159497,-1.47329 20,20 0 0 0 5.16e-4,0 20,20 0 0 0 1.177706,-0.82476 25,25 0 0 1 -0.330212,-0.33021 25,25 0 0 1 -1.970939,-2.81482 25,25 0 0 1 -0.52865,-0.75499 25,25 0 0 1 -1.841748,-3.94911 25,25 0 0 1 -0.232544,-0.86765 10,10 0 0 1 -0.03927,0.0393 10,10 0 0 1 -1.774569,1.11569 10,10 0 0 1 -0.12144,0.076 10,10 0 0 1 -1.172021,0.4098 10,10 0 0 1 -0.578259,0.23978 10,10 0 0 1 -0.170532,0.0222 10,10 0 0 1 -0.192754,0.0677 10,10 0 0 1 -2.225187,0.25063 10,10 0 0 1 -2.225187,-0.25063 10,10 0 0 1 -0.19327,-0.0677 10,10 0 0 1 -0.169498,-0.0222 10,10 0 0 1 -0.575676,-0.23823 10,10 0 0 1 -1.175122,-0.41135 10,10 0 0 1 -0.352433,-0.22169 10,10 0 0 1 -0.308509,-0.12764 10,10 0 0 1 -0.475423,-0.36483 10,10 0 0 1 -0.759643,-0.47749 10,10 0 0 1 -0.453719,-0.45372 10,10 0 0 1 -0.382406,-0.29353 10,10 0 0 1 -0.293005,-0.38188 10,10 0 0 1 -0.454236,-0.45424 10,10 0 0 1 -0.478007,-0.76016 10,10 0 0 1 -0.363802,-0.47439 10,10 0 0 1 -0.127124,-0.30747 10,10 0 0 1 -0.222726,-0.35399 10,10 0 0 1 -0.413928,-1.18236 10,10 0 0 1 -0.235128,-0.56844 10,10 0 0 1 -0.02222,-0.16743 10,10 0 0 1 -0.06821,-0.19533 10,10 0 0 1 -0.250631,-2.22519 v -17.3204 -12.67985 z"
         style="fill:url(#linearGradient2);fill-opacity:1;stroke-width:0.264583"
         id="path38" />
      <path
         id="path37"
         style="fill:url(#linearGradient3);fill-opacity:1;stroke-width:0.264583"
         d="m -13.271985,367.94653 v 9.62938 h 0.0031 a 10,10 0 0 1 0,5.2e-4 10,10 0 0 1 0,5.2e-4 10,10 0 0 1 0,5.1e-4 10,10 0 0 1 0,5.2e-4 10,10 0 0 1 0,5.2e-4 10,10 0 0 1 0,5.1e-4 10,10 0 0 1 0,5.2e-4 10,10 0 0 1 0,5.2e-4 10,10 0 0 1 0,5.1e-4 10,10 0 0 1 0,5.2e-4 10,10 0 0 1 0,5.2e-4 10,10 0 0 1 0,5.1e-4 10,10 0 0 1 0,5.2e-4 10,10 0 0 1 0,5.2e-4 10,10 0 0 1 0,5.1e-4 10,10 0 0 1 0,5.2e-4 10,10 0 0 1 0,5.2e-4 10,10 0 0 1 0,5.1e-4 10,10 0 0 1 0,5.2e-4 10,10 0 0 1 0,5.2e-4 10,10 0 0 1 0,5.1e-4 10,10 0 0 1 0,5.2e-4 10,10 0 0 1 0,5.2e-4 10,10 0 0 1 0,5.1e-4 10,10 0 0 1 0,5.2e-4 10,10 0 0 1 0,5.2e-4 10,10 0 0 1 0,5.2e-4 10,10 0 0 1 0,5.1e-4 10,10 0 0 1 0,5.2e-4 10,10 0 0 1 0,5.2e-4 10,10 0 0 1 0,5.1e-4 10,10 0 0 1 0,5.2e-4 10,10 0 0 1 0,5.2e-4 10,10 0 0 1 0,5.1e-4 10,10 0 0 1 0,5.2e-4 10,10 0 0 1 0,5.2e-4 10,10 0 0 1 0,5.1e-4 10,10 0 0 1 0,5.2e-4 10,10 0 0 1 0,5.2e-4 10,10 0 0 1 0,5.1e-4 10,10 0 0 1 0,5.2e-4 10,10 0 0 1 0,5.2e-4 10,10 0 0 1 0,5.1e-4 10,10 0 0 1 0,5.2e-4 10,10 0 0 1 0,5.2e-4 10,10 0 0 1 0,5.1e-4 10,10 0 0 1 0,5.2e-4 10,10 0 0 1 0,5.2e-4 10,10 0 0 1 0,5.1e-4 10,10 0 0 1 0,5.2e-4 10,10 0 0 1 0,5.2e-4 10,10 0 0 1 0,5.1e-4 10,10 0 0 1 0,5.2e-4 10,10 0 0 1 0,5.2e-4 10,10 0 0 1 0,5.1e-4 10,10 0 0 1 0,5.2e-4 10,10 0 0 1 0,5.2e-4 10,10 0 0 1 0,5.1e-4 10,10 0 0 1 0,5.2e-4 10,10 0 0 1 0,5.2e-4 10,10 0 0 1 0,5.2e-4 10,10 0 0 1 0,5.1e-4 10,10 0 0 1 0,5.2e-4 10,10 0 0 1 0,5.2e-4 10,10 0 0 1 0,5.1e-4 10,10 0 0 1 0,5.2e-4 10,10 0 0 1 0,5.2e-4 10,10 0 0 1 0,5.1e-4 10,10 0 0 1 0,5.2e-4 10,10 0 0 1 0,5.2e-4 10,10 0 0 1 0,5.1e-4 10,10 0 0 1 0,5.2e-4 10,10 0 0 1 0,5.2e-4 10,10 0 0 1 0,5.1e-4 10,10 0 0 1 0,5.2e-4 10,10 0 0 1 0,5.2e-4 10,10 0 0 1 0,5.1e-4 10,10 0 0 1 0,5.2e-4 10,10 0 0 1 0,5.2e-4 10,10 0 0 1 0,5.1e-4 10,10 0 0 1 0,5.2e-4 10,10 0 0 1 0,5.2e-4 10,10 0 0 1 0,5.1e-4 10,10 0 0 1 0,5.2e-4 10,10 0 0 1 0,5.2e-4 10,10 0 0 1 0,5.1e-4 10,10 0 0 1 0,5.2e-4 10,10 0 0 1 0,5.2e-4 10,10 0 0 1 0,5.1e-4 10,10 0 0 1 0,5.2e-4 10,10 0 0 1 0,5.2e-4 10,10 0 0 1 0,5.1e-4 10,10 0 0 1 0,5.2e-4 10,10 0 0 1 0,5.2e-4 10,10 0 0 1 0,5.2e-4 10,10 0 0 1 0,5.1e-4 10,10 0 0 1 0,5.2e-4 10,10 0 0 1 0,5.2e-4 10,10 0 0 1 0,5.1e-4 10,10 0 0 1 0,5.2e-4 10,10 0 0 1 0,5.2e-4 10,10 0 0 1 0,5.1e-4 10,10 0 0 1 0,5.2e-4 10,10 0 0 1 0,5.2e-4 10,10 0 0 1 0,5.1e-4 10,10 0 0 1 0,5.2e-4 10,10 0 0 1 0,5.2e-4 10,10 0 0 1 0,5.1e-4 10,10 0 0 1 0,5.2e-4 10,10 0 0 1 0,5.2e-4 10,10 0 0 1 0,5.1e-4 10,10 0 0 1 0,5.2e-4 10,10 0 0 1 0,5.2e-4 10,10 0 0 1 0,5.1e-4 10,10 0 0 1 0,5.2e-4 10,10 0 0 1 0,5.2e-4 10,10 0 0 1 0,5.1e-4 10,10 0 0 1 0,5.2e-4 10,10 0 0 1 0,5.2e-4 10,10 0 0 1 0,5.1e-4 10,10 0 0 1 0,5.2e-4 10,10 0 0 1 0,5.2e-4 10,10 0 0 1 0,5.1e-4 10,10 0 0 1 0,5.2e-4 10,10 0 0 1 0,5.2e-4 10,10 0 0 1 0,5.1e-4 10,10 0 0 1 0,5.2e-4 10,10 0 0 1 0,5.2e-4 10,10 0 0 1 0,5.2e-4 10,10 0 0 1 0,5.1e-4 10,10 0 0 1 0,5.2e-4 10,10 0 0 1 0,5.2e-4 10,10 0 0 1 0,5.1e-4 10,10 0 0 1 0,5.2e-4 10,10 0 0 1 0,5.2e-4 10,10 0 0 1 0,5.1e-4 10,10 0 0 1 0,5.2e-4 10,10 0 0 1 0,5.2e-4 10,10 0 0 1 0,5.1e-4 10,10 0 0 1 0,5.2e-4 10,10 0 0 1 0,5.2e-4 10,10 0 0 1 0,5.1e-4 10,10 0 0 1 0,5.2e-4 10,10 0 0 1 0,5.2e-4 10,10 0 0 1 0,5.1e-4 10,10 0 0 1 0,5.2e-4 10,10 0 0 1 0,5.2e-4 10,10 0 0 1 0,5.1e-4 10,10 0 0 1 0,5.2e-4 10,10 0 0 1 0,5.2e-4 10,10 0 0 1 0,5.1e-4 10,10 0 0 1 0,5.2e-4 10,10 0 0 1 0,5.2e-4 10,10 0 0 1 0,5.1e-4 10,10 0 0 1 0,5.2e-4 10,10 0 0 1 0,5.2e-4 10,10 0 0 1 0,5.1e-4 10,10 0 0 1 0,5.2e-4 10,10 0 0 1 0,5.2e-4 10,10 0 0 1 0,5.1e-4 10,10 0 0 1 0,5.2e-4 10,10 0 0 1 0,5.2e-4 10,10 0 0 1 0,5.2e-4 10,10 0 0 1 0,5.1e-4 10,10 0 0 1 0,5.2e-4 10,10 0 0 1 0,5.2e-4 10,10 0 0 1 0,5.1e-4 10,10 0 0 1 0,5.2e-4 10,10 0 0 1 0,5.2e-4 10,10 0 0 1 0,5.1e-4 10,10 0 0 1 0,5.2e-4 10,10 0 0 1 0,5.2e-4 10,10 0 0 1 0,5.1e-4 10,10 0 0 1 0,5.2e-4 10,10 0 0 1 0,5.2e-4 10,10 0 0 1 0,5.1e-4 10,10 0 0 1 0,5.2e-4 10,10 0 0 1 0,5.2e-4 10,10 0 0 1 0,5.1e-4 10,10 0 0 1 0,5.2e-4 10,10 0 0 1 0,5.2e-4 10,10 0 0 1 0,5.1e-4 10,10 0 0 1 0,5.2e-4 10,10 0 0 1 0,5.2e-4 10,10 0 0 1 0,5.1e-4 10,10 0 0 1 -5.17e-4,0.005 v 10e-4 a 10,10 0 0 1 -0.0015,0.10231 10,10 0 0 1 -0.0031,0.10181 10,10 0 0 1 -0.0041,0.1018 10,10 0 0 1 -0.0052,0.10232 10,10 0 0 1 -0.0057,0.1018 10,10 0 0 1 -0.0072,0.1018 10,10 0 0 1 -0.0078,0.10129 10,10 0 0 1 -0.0093,0.1018 10,10 0 0 1 -0.01034,0.10129 10,10 0 0 1 -0.01085,0.1018 10,10 0 0 1 -0.01189,0.10129 10,10 0 0 1 -0.01292,0.10128 10,10 0 0 1 -0.01447,0.10077 10,10 0 0 1 -0.01499,0.10077 10,10 0 0 1 -0.01602,0.10077 10,10 0 0 1 -0.01705,0.10077 10,10 0 0 1 -0.01809,0.10025 10,10 0 0 1 -0.01912,0.10025 10,10 0 0 1 -0.02015,0.0997 10,10 0 0 1 -0.02119,0.0992 10,10 0 0 1 -0.02222,0.0997 10,10 0 0 1 -0.740007,2.11357 10,10 0 0 1 -1.191141,1.89652 10,10 0 0 1 -1.583366,1.58337 10,10 0 0 1 -1.896009,1.19114 10,10 0 0 1 -2.113566,0.73949 10,10 0 0 1 -2.225704,0.25063 10,10 0 0 1 -2.225187,-0.25063 10,10 0 0 1 -2.113566,-0.73949 10,10 0 0 1 -1.896008,-1.19114 10,10 0 0 1 -1.583366,-1.58337 10,10 0 0 1 -1.191142,-1.89652 10,10 0 0 1 -0.740006,-2.11357 10,10 0 0 1 -0.24443,-2.12286 h 0.0031 v -9.62939 h -10.000424 v 9.62939 h 0.0031 a 20,20 0 0 0 0.238228,3.0272 20,20 0 0 0 0.732255,3.05149 20,20 0 0 0 1.200961,2.89957 20,20 0 0 0 0.794267,1.29604 h -5.17e-4 a 20,20 0 0 0 0.845943,1.37976 20,20 0 0 0 1.19941,1.40405 20,20 0 0 0 0.838708,0.98237 20,20 0 0 0 2.386418,2.03812 20,20 0 0 0 2.675806,1.63969 20,20 0 0 0 2.899564,1.20096 20,20 0 0 0 3.051494,0.73278 20,20 0 0 0 3.128491,0.24649 20,20 0 0 0 3.129008,-0.24649 20,20 0 0 0 3.051493,-0.73278 20,20 0 0 0 2.899565,-1.20096 20,20 0 0 0 2.675805,-1.63969 20,20 0 0 0 2.386418,-2.03812 20,20 0 0 0 2.038118,-2.38642 20,20 0 0 0 1.64021,-2.6758 20,20 0 0 0 1.20096,-2.89957 20,20 0 0 0 0.7322599,-3.05149 20,20 0 0 0 0.24649,-3.12901 h -0.0031 v -9.62938 z" />
      <path
         id="path40"
         style="fill:url(#linearGradient4);fill-opacity:1;stroke-width:0.264583"
         d="m 21.584312,357.57352 a 20,20 0 0 0 -3.472656,0.30386 20,20 0 0 0 -1.527039,0.40928 v 10.62622 a 10,10 0 0 1 0.307992,-0.12764 10,10 0 0 1 0.35295,-0.22169 10,10 0 0 1 1.175122,-0.41134 10,10 0 0 1 0.575675,-0.23823 10,10 0 0 1 0.169499,-0.0217 10,10 0 0 1 0.19327,-0.0677 10,10 0 0 1 2.225187,-0.25063 10,10 0 0 1 0.825789,0.0341 10,10 0 0 1 0.02015,0.003 10,10 0 0 1 0.02584,0.001 10,10 0 0 1 0.292489,0.0388 10,10 0 0 1 0.481624,0.0599 10,10 0 0 1 0.04496,0.009 10,10 0 0 1 0.04651,0.006 10,10 0 0 1 0.299206,0.0661 10,10 0 0 1 0.418579,0.0879 10,10 0 0 1 0.06511,0.0196 10,10 0 0 1 0.06821,0.015 10,10 0 0 1 0.287321,0.0904 10,10 0 0 1 0.371037,0.11059 10,10 0 0 1 0.0894,0.0351 10,10 0 0 1 0.08423,0.0263 10,10 0 0 1 0.269234,0.11162 10,10 0 0 1 0.327112,0.12765 10,10 0 0 1 0.103353,0.0506 10,10 0 0 1 0.106453,0.0434 10,10 0 0 1 0.248564,0.1297 10,10 0 0 1 0.28422,0.1385 10,10 0 0 1 0.119373,0.0713 10,10 0 0 1 0.12144,0.0631 10,10 0 0 1 0.224792,0.14314 10,10 0 0 1 0.24443,0.14573 10,10 0 0 1 0.130741,0.093 10,10 0 0 1 0.135909,0.0868 10,10 0 0 1 0.192236,0.1478 10,10 0 0 1 0.213941,0.15244 10,10 0 0 1 0.14521,0.12299 v 5.2e-4 a 10,10 0 0 1 0.02842,0.0222 25,25 0 0 0 0,5.2e-4 10,10 0 0 1 5.17e-4,0 10,10 0 0 1 0.110588,0.0853 10,10 0 0 1 0.162781,0.14883 10,10 0 0 1 0.181901,0.15451 10,10 0 0 1 0.150378,0.15038 10,10 0 0 1 0.148311,0.13591 10,10 0 0 1 0.135909,0.14831 10,10 0 0 1 0.149862,0.14986 10,10 0 0 1 0.153996,0.1819 10,10 0 0 1 0.149345,0.16278 10,10 0 0 1 0.10697,0.13953 10,10 0 0 1 0.124023,0.14625 10,10 0 0 1 0.15658,0.2191 10,10 0 0 1 0.14366,0.18759 10,10 0 0 1 0.08423,0.13229 10,10 0 0 1 0.0956,0.13384 10,10 0 0 1 0.147278,0.24702 10,10 0 0 1 0.141594,0.2222 10,10 0 0 1 0.06356,0.12196 10,10 0 0 1 0.0708,0.11886 10,10 0 0 1 0.136426,0.27853 10,10 0 0 1 0.132292,0.25477 10,10 0 0 1 0.04547,0.11007 10,10 0 0 1 0.04909,0.0992 10,10 0 0 1 0.12299,0.31419 10,10 0 0 1 0.116788,0.28267 10,10 0 0 1 0.02739,0.0884 10,10 0 0 1 0.03359,0.0853 10,10 0 0 1 0.111621,0.37466 10,10 0 0 1 0.0894,0.28422 10,10 0 0 1 0.01499,0.0651 10,10 0 0 1 0.02067,0.0677 10,10 0 0 1 0.08423,0.40566 10,10 0 0 1 0.06976,0.31315 10,10 0 0 1 0.0067,0.0507 10,10 0 0 1 0.0083,0.0398 10,10 0 0 1 0.05736,0.4594 10,10 0 0 1 0.04083,0.31471 10,10 0 0 1 0.001,0.0264 10,10 0 0 1 0.0026,0.0196 10,10 0 0 1 0.0031,0.0377 10,10 0 0 1 0.0031,0.0367 10,10 0 0 1 0.0031,0.0377 10,10 0 0 1 0.0031,0.0372 10,10 0 0 1 0.0031,0.0377 10,10 0 0 1 0.0016,0.0372 10,10 0 0 1 0.0021,0.0372 10,10 0 0 1 0.0021,0.0377 10,10 0 0 1 0.0021,0.0372 10,10 0 0 1 0.0021,0.0377 10,10 0 0 1 0.0021,0.0377 10,10 0 0 1 0.001,0.0372 10,10 0 0 1 0.0021,0.0377 10,10 0 0 1 5.17e-4,0.0377 10,10 0 0 1 0.001,0.0372 10,10 0 0 1 0.001,0.0377 10,10 0 0 1 10e-4,0.0377 10,10 0 0 1 5.16e-4,0.0372 10,10 0 0 1 5.17e-4,0.0377 10,10 0 0 1 0,5.2e-4 10,10 0 0 1 0,5.2e-4 10,10 0 0 1 0,5.1e-4 10,10 0 0 1 0,5.2e-4 10,10 0 0 1 0,5.2e-4 10,10 0 0 1 0,5.2e-4 10,10 0 0 1 0,5.1e-4 10,10 0 0 1 0,5.2e-4 10,10 0 0 1 0,5.2e-4 10,10 0 0 1 0,5.1e-4 10,10 0 0 1 0,5.2e-4 10,10 0 0 1 0,5.2e-4 10,10 0 0 1 0,5.1e-4 10,10 0 0 1 0,5.2e-4 10,10 0 0 1 0,5.2e-4 10,10 0 0 1 0,5.1e-4 10,10 0 0 1 0,5.2e-4 10,10 0 0 1 0,5.2e-4 10,10 0 0 1 0,5.1e-4 10,10 0 0 1 0,5.2e-4 10,10 0 0 1 0,5.2e-4 10,10 0 0 1 0,5.1e-4 10,10 0 0 1 0,5.2e-4 10,10 0 0 1 0,5.2e-4 10,10 0 0 1 0,5.1e-4 10,10 0 0 1 0,5.2e-4 10,10 0 0 1 0,5.2e-4 10,10 0 0 1 0,5.1e-4 10,10 0 0 1 0,5.2e-4 10,10 0 0 1 0,5.2e-4 10,10 0 0 1 0,5.1e-4 10,10 0 0 1 0,5.2e-4 10,10 0 0 1 0,5.2e-4 10,10 0 0 1 0,5.1e-4 10,10 0 0 1 0,5.2e-4 10,10 0 0 1 0,5.2e-4 10,10 0 0 1 0,5.1e-4 10,10 0 0 1 0,5.2e-4 10,10 0 0 1 0,5.2e-4 10,10 0 0 1 0,5.2e-4 10,10 0 0 1 0,5.1e-4 10,10 0 0 1 0,5.2e-4 10,10 0 0 1 0,5.2e-4 10,10 0 0 1 0,5.1e-4 10,10 0 0 1 0,5.2e-4 10,10 0 0 1 0,5.2e-4 10,10 0 0 1 0,5.1e-4 10,10 0 0 1 0,5.2e-4 10,10 0 0 1 0,5.2e-4 10,10 0 0 1 0,5.1e-4 10,10 0 0 1 0,5.2e-4 10,10 0 0 1 0,5.2e-4 10,10 0 0 1 0,5.1e-4 10,10 0 0 1 0,5.2e-4 10,10 0 0 1 0,5.2e-4 10,10 0 0 1 0,5.1e-4 10,10 0 0 1 0,5.2e-4 10,10 0 0 1 0,5.2e-4 10,10 0 0 1 0,5.1e-4 10,10 0 0 1 0,5.2e-4 10,10 0 0 1 0,5.2e-4 10,10 0 0 1 0,5.1e-4 10,10 0 0 1 0,5.2e-4 10,10 0 0 1 0,5.2e-4 10,10 0 0 1 0,5.1e-4 10,10 0 0 1 0,5.2e-4 10,10 0 0 1 0,5.2e-4 10,10 0 0 1 0,5.1e-4 10,10 0 0 1 0,5.2e-4 10,10 0 0 1 0,5.2e-4 10,10 0 0 1 0,5.1e-4 10,10 0 0 1 0,5.2e-4 10,10 0 0 1 0,5.2e-4 10,10 0 0 1 0,5.2e-4 10,10 0 0 1 0,5.1e-4 10,10 0 0 1 0,5.2e-4 10,10 0 0 1 5.17e-4,0.0372 10,10 0 0 1 0,5.1e-4 10,10 0 0 1 0,5.2e-4 10,10 0 0 1 0,5.2e-4 10,10 0 0 1 0,5.1e-4 10,10 0 0 1 0,5.2e-4 10,10 0 0 1 0,5.2e-4 10,10 0 0 1 0,5.1e-4 10,10 0 0 1 0,5.2e-4 10,10 0 0 1 0,5.2e-4 10,10 0 0 1 0,5.1e-4 10,10 0 0 1 0,5.2e-4 10,10 0 0 1 0,5.2e-4 10,10 0 0 1 0,5.1e-4 10,10 0 0 1 0,5.2e-4 10,10 0 0 1 0,5.2e-4 10,10 0 0 1 0,5.1e-4 10,10 0 0 1 0,5.2e-4 10,10 0 0 1 0,5.2e-4 10,10 0 0 1 0,5.1e-4 10,10 0 0 1 0,5.2e-4 10,10 0 0 1 0,5.2e-4 10,10 0 0 1 0,5.1e-4 10,10 0 0 1 0,5.2e-4 10,10 0 0 1 0,5.2e-4 10,10 0 0 1 0,5.1e-4 10,10 0 0 1 0,5.2e-4 10,10 0 0 1 0,5.2e-4 10,10 0 0 1 0,5.2e-4 10,10 0 0 1 0,5.1e-4 10,10 0 0 1 0,5.2e-4 10,10 0 0 1 0,5.2e-4 10,10 0 0 1 0,5.1e-4 10,10 0 0 1 0,5.2e-4 10,10 0 0 1 0,5.2e-4 10,10 0 0 1 0,5.1e-4 10,10 0 0 1 0,5.2e-4 10,10 0 0 1 0,5.2e-4 10,10 0 0 1 0,5.1e-4 10,10 0 0 1 0,5.2e-4 10,10 0 0 1 0,5.2e-4 10,10 0 0 1 0,5.1e-4 10,10 0 0 1 0,5.2e-4 10,10 0 0 1 0,5.2e-4 10,10 0 0 1 0,5.1e-4 10,10 0 0 1 0,5.2e-4 10,10 0 0 1 0,5.2e-4 10,10 0 0 1 0,5.1e-4 10,10 0 0 1 0,5.2e-4 10,10 0 0 1 0,5.2e-4 10,10 0 0 1 0,5.1e-4 10,10 0 0 1 0,5.2e-4 10,10 0 0 1 0,5.2e-4 10,10 0 0 1 0,5.1e-4 10,10 0 0 1 0,5.2e-4 10,10 0 0 1 0,5.2e-4 10,10 0 0 1 0,5.1e-4 10,10 0 0 1 5.17e-4,0.0119 h -5.17e-4 a 10,10 0 0 1 0,5.2e-4 10,10 0 0 1 0,5.1e-4 10,10 0 0 1 0,5.2e-4 10,10 0 0 1 0,5.2e-4 10,10 0 0 1 0,5.1e-4 10,10 0 0 1 0,5.2e-4 10,10 0 0 1 0,5.2e-4 10,10 0 0 1 0,5.1e-4 10,10 0 0 1 0,5.2e-4 10,10 0 0 1 0,5.2e-4 10,10 0 0 1 0,5.1e-4 10,10 0 0 1 0,5.2e-4 10,10 0 0 1 0,5.2e-4 10,10 0 0 1 0,5.1e-4 10,10 0 0 1 0,5.2e-4 10,10 0 0 1 0,5.2e-4 10,10 0 0 1 0,5.2e-4 10,10 0 0 1 0,5.1e-4 10,10 0 0 1 0,5.2e-4 10,10 0 0 1 0,5.2e-4 10,10 0 0 1 0,5.1e-4 10,10 0 0 1 0,5.2e-4 10,10 0 0 1 0,5.2e-4 10,10 0 0 1 0,5.1e-4 10,10 0 0 1 0,5.2e-4 10,10 0 0 1 0,5.2e-4 10,10 0 0 1 0,5.1e-4 10,10 0 0 1 0,5.2e-4 10,10 0 0 1 0,5.2e-4 10,10 0 0 1 0,5.1e-4 10,10 0 0 1 0,5.2e-4 10,10 0 0 1 0,5.2e-4 10,10 0 0 1 0,5.1e-4 10,10 0 0 1 0,5.2e-4 10,10 0 0 1 0,5.2e-4 10,10 0 0 1 0,5.1e-4 10,10 0 0 1 0,5.2e-4 10,10 0 0 1 0,5.2e-4 h -0.0021 a 20,20 0 0 0 0.244946,3.10937 20,20 0 0 0 0.732255,3.05149 20,20 0 0 0 1.20096,2.89957 20,20 0 0 0 0.794267,1.29604 h -5.17e-4 a 20,20 0 0 0 0.845944,1.37976 20,20 0 0 0 1.19941,1.40405 20,20 0 0 0 0.838708,0.98237 20,20 0 0 0 2.386418,2.03812 20,20 0 0 0 2.675805,1.63969 20,20 0 0 0 2.899565,1.20096 20,20 0 0 0 3.051493,0.73277 20,20 0 0 0 3.128492,0.2465 20,20 0 0 0 3.129008,-0.2465 20,20 0 0 0 3.051493,-0.73277 20,20 0 0 0 2.899565,-1.20096 20,20 0 0 0 2.675805,-1.63969 20,20 0 0 0 2.386418,-2.03812 20,20 0 0 0 2.038118,-2.38642 20,20 0 0 0 1.64021,-2.6758 20,20 0 0 0 1.200961,-2.89957 20,20 0 0 0 0.732255,-3.05149 20,20 0 0 0 0.246496,-3.12901 v -9.73119 h -9.999906 v 9.73119 a 10,10 0 0 1 0,5.2e-4 10,10 0 0 1 0,5.1e-4 10,10 0 0 1 0,5.2e-4 10,10 0 0 1 0,5.2e-4 10,10 0 0 1 0,5.1e-4 10,10 0 0 1 0,5.2e-4 10,10 0 0 1 0,5.2e-4 10,10 0 0 1 0,5.1e-4 10,10 0 0 1 0,5.2e-4 10,10 0 0 1 0,5.2e-4 10,10 0 0 1 0,5.1e-4 10,10 0 0 1 0,5.2e-4 10,10 0 0 1 0,5.2e-4 10,10 0 0 1 0,5.1e-4 10,10 0 0 1 0,5.2e-4 10,10 0 0 1 0,5.2e-4 10,10 0 0 1 0,5.2e-4 10,10 0 0 1 0,5.1e-4 10,10 0 0 1 0,5.2e-4 10,10 0 0 1 0,5.2e-4 10,10 0 0 1 0,5.1e-4 10,10 0 0 1 0,5.2e-4 10,10 0 0 1 0,5.2e-4 10,10 0 0 1 0,5.1e-4 10,10 0 0 1 0,5.2e-4 10,10 0 0 1 0,5.2e-4 10,10 0 0 1 0,5.1e-4 10,10 0 0 1 0,5.2e-4 10,10 0 0 1 0,5.2e-4 10,10 0 0 1 0,5.1e-4 10,10 0 0 1 0,5.2e-4 10,10 0 0 1 0,5.2e-4 10,10 0 0 1 0,5.1e-4 10,10 0 0 1 0,5.2e-4 10,10 0 0 1 0,5.2e-4 10,10 0 0 1 0,5.1e-4 10,10 0 0 1 0,5.2e-4 10,10 0 0 1 0,5.2e-4 10,10 0 0 1 0,5.1e-4 10,10 0 0 1 0,5.2e-4 10,10 0 0 1 0,5.2e-4 10,10 0 0 1 0,5.1e-4 10,10 0 0 1 0,5.2e-4 10,10 0 0 1 0,5.2e-4 10,10 0 0 1 0,5.1e-4 10,10 0 0 1 0,5.2e-4 10,10 0 0 1 0,5.2e-4 10,10 0 0 1 0,5.1e-4 10,10 0 0 1 0,5.2e-4 10,10 0 0 1 0,5.2e-4 10,10 0 0 1 0,5.2e-4 10,10 0 0 1 0,5.1e-4 10,10 0 0 1 0,5.2e-4 10,10 0 0 1 0,5.2e-4 10,10 0 0 1 0,5.1e-4 10,10 0 0 1 0,5.2e-4 10,10 0 0 1 0,5.2e-4 10,10 0 0 1 0,5.1e-4 10,10 0 0 1 0,5.2e-4 10,10 0 0 1 0,5.2e-4 10,10 0 0 1 0,5.1e-4 10,10 0 0 1 0,5.2e-4 10,10 0 0 1 0,5.2e-4 10,10 0 0 1 0,5.1e-4 10,10 0 0 1 0,5.2e-4 10,10 0 0 1 0,5.2e-4 10,10 0 0 1 0,5.1e-4 10,10 0 0 1 0,5.2e-4 10,10 0 0 1 0,5.2e-4 10,10 0 0 1 0,5.1e-4 10,10 0 0 1 0,5.2e-4 10,10 0 0 1 0,5.2e-4 10,10 0 0 1 0,5.1e-4 10,10 0 0 1 0,5.2e-4 10,10 0 0 1 0,5.2e-4 10,10 0 0 1 0,5.1e-4 10,10 0 0 1 0,5.2e-4 10,10 0 0 1 0,5.2e-4 10,10 0 0 1 0,5.1e-4 10,10 0 0 1 0,5.2e-4 10,10 0 0 1 0,5.2e-4 10,10 0 0 1 0,5.1e-4 10,10 0 0 1 0,5.2e-4 10,10 0 0 1 0,5.2e-4 10,10 0 0 1 0,5.2e-4 10,10 0 0 1 0,5.1e-4 10,10 0 0 1 0,5.2e-4 10,10 0 0 1 0,5.2e-4 10,10 0 0 1 0,5.1e-4 10,10 0 0 1 0,5.2e-4 10,10 0 0 1 0,5.2e-4 10,10 0 0 1 0,5.1e-4 10,10 0 0 1 0,5.2e-4 10,10 0 0 1 0,5.2e-4 10,10 0 0 1 0,5.1e-4 10,10 0 0 1 0,5.2e-4 10,10 0 0 1 0,5.2e-4 10,10 0 0 1 0,5.1e-4 10,10 0 0 1 0,5.2e-4 10,10 0 0 1 0,5.2e-4 10,10 0 0 1 0,5.1e-4 10,10 0 0 1 0,5.2e-4 10,10 0 0 1 0,5.2e-4 10,10 0 0 1 0,5.1e-4 10,10 0 0 1 0,5.2e-4 10,10 0 0 1 0,5.2e-4 10,10 0 0 1 0,5.1e-4 10,10 0 0 1 0,5.2e-4 10,10 0 0 1 0,5.2e-4 10,10 0 0 1 0,5.1e-4 10,10 0 0 1 0,5.2e-4 10,10 0 0 1 0,5.2e-4 10,10 0 0 1 0,5.1e-4 10,10 0 0 1 0,5.2e-4 10,10 0 0 1 0,5.2e-4 10,10 0 0 1 0,5.1e-4 10,10 0 0 1 0,5.2e-4 10,10 0 0 1 0,5.2e-4 10,10 0 0 1 0,5.2e-4 10,10 0 0 1 0,5.1e-4 10,10 0 0 1 0,5.2e-4 10,10 0 0 1 0,5.2e-4 10,10 0 0 1 0,5.1e-4 10,10 0 0 1 0,5.2e-4 10,10 0 0 1 0,5.2e-4 10,10 0 0 1 0,5.1e-4 10,10 0 0 1 0,5.2e-4 10,10 0 0 1 0,5.2e-4 10,10 0 0 1 0,5.1e-4 10,10 0 0 1 0,5.2e-4 10,10 0 0 1 0,5.2e-4 10,10 0 0 1 0,5.1e-4 10,10 0 0 1 0,5.2e-4 10,10 0 0 1 0,5.2e-4 10,10 0 0 1 0,5.1e-4 10,10 0 0 1 0,5.2e-4 10,10 0 0 1 0,5.2e-4 10,10 0 0 1 0,5.1e-4 10,10 0 0 1 0,5.2e-4 10,10 0 0 1 0,5.2e-4 10,10 0 0 1 0,5.1e-4 10,10 0 0 1 0,5.2e-4 10,10 0 0 1 0,5.2e-4 10,10 0 0 1 0,5.1e-4 10,10 0 0 1 0,5.2e-4 10,10 0 0 1 0,5.2e-4 10,10 0 0 1 0,5.1e-4 10,10 0 0 1 0,5.2e-4 10,10 0 0 1 0,5.2e-4 10,10 0 0 1 0,5.1e-4 10,10 0 0 1 0,5.2e-4 10,10 0 0 1 0,5.2e-4 10,10 0 0 1 0,5.2e-4 10,10 0 0 1 0,5.1e-4 10,10 0 0 1 0,5.2e-4 10,10 0 0 1 0,5.2e-4 10,10 0 0 1 0,5.1e-4 10,10 0 0 1 0,5.2e-4 10,10 0 0 1 0,5.2e-4 10,10 0 0 1 0,5.1e-4 10,10 0 0 1 0,5.2e-4 10,10 0 0 1 0,5.2e-4 10,10 0 0 1 0,5.1e-4 10,10 0 0 1 0,5.2e-4 10,10 0 0 1 0,5.2e-4 10,10 0 0 1 0,5.1e-4 10,10 0 0 1 0,5.2e-4 10,10 0 0 1 0,5.2e-4 10,10 0 0 1 0,5.1e-4 10,10 0 0 1 0,5.2e-4 10,10 0 0 1 0,5.2e-4 10,10 0 0 1 0,5.1e-4 10,10 0 0 1 0,5.2e-4 10,10 0 0 1 0,5.2e-4 10,10 0 0 1 0,5.1e-4 10,10 0 0 1 0,5.2e-4 10,10 0 0 1 0,5.2e-4 10,10 0 0 1 0,5.1e-4 10,10 0 0 1 -5.17e-4,0.004 10,10 0 0 1 0,5.2e-4 10,10 0 0 1 0,5.2e-4 10,10 0 0 1 0,5.1e-4 10,10 0 0 1 0,5.2e-4 10,10 0 0 1 0,5.2e-4 10,10 0 0 1 0,5.1e-4 10,10 0 0 1 0,5.2e-4 10,10 0 0 1 0,5.2e-4 10,10 0 0 1 0,5.1e-4 10,10 0 0 1 0,5.2e-4 10,10 0 0 1 0,5.2e-4 10,10 0 0 1 0,5.1e-4 10,10 0 0 1 0,5.2e-4 10,10 0 0 1 0,5.2e-4 10,10 0 0 1 0,5.1e-4 10,10 0 0 1 0,5.2e-4 10,10 0 0 1 0,5.2e-4 10,10 0 0 1 0,5.1e-4 10,10 0 0 1 -0.0016,0.10232 10,10 0 0 1 -0.0031,0.10181 10,10 0 0 1 -0.0041,0.1018 10,10 0 0 1 -0.0052,0.10232 10,10 0 0 1 -0.0057,0.1018 10,10 0 0 1 -0.0072,0.1018 10,10 0 0 1 -0.0078,0.10129 10,10 0 0 1 -0.0093,0.1018 10,10 0 0 1 -0.01033,0.10129 10,10 0 0 1 -0.01085,0.1018 10,10 0 0 1 -0.01189,0.10128 10,10 0 0 1 -0.01292,0.10129 10,10 0 0 1 -0.01447,0.10077 10,10 0 0 1 -0.01499,0.10077 10,10 0 0 1 -0.01602,0.10077 10,10 0 0 1 -0.01705,0.10077 10,10 0 0 1 -0.01809,0.10025 10,10 0 0 1 -0.01912,0.10025 10,10 0 0 1 -0.02015,0.0997 10,10 0 0 1 -0.02119,0.0992 10,10 0 0 1 -0.02222,0.0997 10,10 0 0 1 -0.740006,2.11357 10,10 0 0 1 -1.191142,1.89652 10,10 0 0 1 -1.583366,1.58337 10,10 0 0 1 -1.896008,1.19114 10,10 0 0 1 -2.113566,0.73949 10,10 0 0 1 -2.225704,0.25063 10,10 0 0 1 -2.225187,-0.25063 10,10 0 0 1 -2.113566,-0.73949 10,10 0 0 1 -1.896009,-1.19114 10,10 0 0 1 -1.583365,-1.58337 10,10 0 0 1 -1.191142,-1.89652 10,10 0 0 1 -0.740007,-2.11357 10,10 0 0 1 -0.244946,-2.12855 20,20 0 0 0 0,-5.2e-4 20,20 0 0 0 0,-5.1e-4 20,20 0 0 0 0,-5.2e-4 20,20 0 0 0 0,-5.2e-4 20,20 0 0 0 0,-5.1e-4 20,20 0 0 0 0,-5.2e-4 20,20 0 0 0 0,-5.2e-4 20,20 0 0 0 0,-5.2e-4 20,20 0 0 0 0,-5.1e-4 10,10 0 0 1 0,-5.2e-4 20,20 0 0 0 0,-5.2e-4 20,20 0 0 0 0,-5.1e-4 20,20 0 0 0 0,-5.2e-4 20,20 0 0 0 0,-5.2e-4 20,20 0 0 0 0,-5.1e-4 20,20 0 0 0 0,-5.2e-4 10,10 0 0 1 0,-0.002 20,20 0 0 0 0,-5.1e-4 20,20 0 0 0 0,-5.2e-4 20,20 0 0 0 0,-5.2e-4 20,20 0 0 0 0,-5.1e-4 20,20 0 0 0 0,-5.2e-4 20,20 0 0 0 0,-5.2e-4 20,20 0 0 0 0,-5.1e-4 20,20 0 0 0 0,-5.2e-4 20,20 0 0 0 0,-5.2e-4 20,20 0 0 0 0,-5.1e-4 20,20 0 0 0 0,-5.2e-4 20,20 0 0 0 0,-5.2e-4 20,20 0 0 0 0,-5.1e-4 20,20 0 0 0 0,-5.2e-4 20,20 0 0 0 0,-5.2e-4 20,20 0 0 0 0,-5.1e-4 20,20 0 0 0 0,-5.2e-4 20,20 0 0 0 0,-5.2e-4 20,20 0 0 0 0,-5.1e-4 20,20 0 0 0 0,-5.2e-4 20,20 0 0 0 0,-5.2e-4 20,20 0 0 0 0,-5.2e-4 20,20 0 0 0 0,-5.1e-4 20,20 0 0 0 0,-5.2e-4 20,20 0 0 0 0,-5.2e-4 20,20 0 0 0 0,-5.1e-4 20,20 0 0 0 0,-5.2e-4 20,20 0 0 0 0,-5.2e-4 20,20 0 0 0 0,-5.1e-4 20,20 0 0 0 0,-5.2e-4 20,20 0 0 0 0,-5.2e-4 20,20 0 0 0 0,-5.1e-4 20,20 0 0 0 0,-5.2e-4 20,20 0 0 0 0,-5.2e-4 20,20 0 0 0 0,-5.1e-4 20,20 0 0 0 0,-5.2e-4 20,20 0 0 0 0,-5.2e-4 20,20 0 0 0 0,-5.1e-4 20,20 0 0 0 0,-5.2e-4 20,20 0 0 0 0,-5.2e-4 20,20 0 0 0 0,-5.1e-4 20,20 0 0 0 0,-5.2e-4 20,20 0 0 0 0,-5.2e-4 20,20 0 0 0 0,-5.1e-4 20,20 0 0 0 0,-5.2e-4 20,20 0 0 0 0,-5.2e-4 20,20 0 0 0 0,-5.1e-4 20,20 0 0 0 0,-5.2e-4 20,20 0 0 0 0,-5.2e-4 20,20 0 0 0 0,-5.1e-4 20,20 0 0 0 0,-5.2e-4 20,20 0 0 0 0,-5.2e-4 20,20 0 0 0 0,-5.1e-4 20,20 0 0 0 0,-5.2e-4 20,20 0 0 0 0,-5.2e-4 20,20 0 0 0 0,-5.2e-4 20,20 0 0 0 0,-5.1e-4 20,20 0 0 0 0,-5.2e-4 20,20 0 0 0 0,-5.2e-4 20,20 0 0 0 0,-5.1e-4 20,20 0 0 0 0,-5.2e-4 20,20 0 0 0 0,-5.2e-4 20,20 0 0 0 0,-5.1e-4 20,20 0 0 0 0,-5.2e-4 20,20 0 0 0 0,-5.2e-4 20,20 0 0 0 0,-5.1e-4 20,20 0 0 0 0,-5.2e-4 20,20 0 0 0 0,-5.2e-4 20,20 0 0 0 0,-5.1e-4 20,20 0 0 0 0,-5.2e-4 20,20 0 0 0 0,-5.2e-4 20,20 0 0 0 0,-5.1e-4 20,20 0 0 0 0,-5.2e-4 20,20 0 0 0 0,-5.2e-4 20,20 0 0 0 0,-5.1e-4 20,20 0 0 0 0,-5.2e-4 20,20 0 0 0 0,-5.2e-4 20,20 0 0 0 0,-5.1e-4 20,20 0 0 0 0,-5.2e-4 20,20 0 0 0 0,-5.2e-4 20,20 0 0 0 0,-5.1e-4 20,20 0 0 0 0,-5.2e-4 20,20 0 0 0 0,-5.2e-4 20,20 0 0 0 0,-5.1e-4 20,20 0 0 0 0,-5.2e-4 20,20 0 0 0 0,-5.2e-4 20,20 0 0 0 0,-5.1e-4 20,20 0 0 0 0,-5.2e-4 20,20 0 0 0 0,-5.2e-4 20,20 0 0 0 0,-5.2e-4 20,20 0 0 0 0,-5.1e-4 20,20 0 0 0 0,-5.2e-4 20,20 0 0 0 0,-5.2e-4 20,20 0 0 0 0,-5.1e-4 20,20 0 0 0 0,-5.2e-4 20,20 0 0 0 0,-5.2e-4 20,20 0 0 0 0,-5.1e-4 20,20 0 0 0 0,-5.2e-4 20,20 0 0 0 0,-5.2e-4 20,20 0 0 0 0,-5.1e-4 20,20 0 0 0 0,-5.2e-4 20,20 0 0 0 0,-5.2e-4 20,20 0 0 0 0,-5.1e-4 20,20 0 0 0 0,-5.2e-4 20,20 0 0 0 0,-5.2e-4 20,20 0 0 0 0,-5.1e-4 20,20 0 0 0 0,-5.2e-4 20,20 0 0 0 0,-5.2e-4 20,20 0 0 0 0,-5.1e-4 20,20 0 0 0 0,-5.2e-4 20,20 0 0 0 0,-5.2e-4 20,20 0 0 0 0,-5.1e-4 20,20 0 0 0 0,-5.2e-4 20,20 0 0 0 0,-5.2e-4 20,20 0 0 0 0,-5.1e-4 20,20 0 0 0 0,-5.2e-4 20,20 0 0 0 0,-5.2e-4 20,20 0 0 0 0,-5.1e-4 20,20 0 0 0 0,-5.2e-4 20,20 0 0 0 0,-5.2e-4 20,20 0 0 0 0,-5.1e-4 20,20 0 0 0 0,-5.2e-4 20,20 0 0 0 0,-5.2e-4 20,20 0 0 0 0,-5.2e-4 20,20 0 0 0 0,-5.1e-4 20,20 0 0 0 0,-5.2e-4 20,20 0 0 0 0,-5.2e-4 20,20 0 0 0 0,-5.1e-4 20,20 0 0 0 0,-5.2e-4 20,20 0 0 0 0,-5.2e-4 20,20 0 0 0 0,-5.1e-4 20,20 0 0 0 0,-5.2e-4 20,20 0 0 0 0,-5.2e-4 20,20 0 0 0 0,-5.1e-4 20,20 0 0 0 0,-5.2e-4 20,20 0 0 0 0,-5.2e-4 20,20 0 0 0 0,-5.1e-4 20,20 0 0 0 0,-5.2e-4 20,20 0 0 0 0,-5.2e-4 20,20 0 0 0 0,-5.1e-4 20,20 0 0 0 0,-5.2e-4 20,20 0 0 0 0,-5.2e-4 20,20 0 0 0 0,-5.1e-4 20,20 0 0 0 0,-5.2e-4 20,20 0 0 0 0,-5.2e-4 20,20 0 0 0 0,-5.1e-4 20,20 0 0 0 0,-5.2e-4 20,20 0 0 0 0,-5.2e-4 20,20 0 0 0 0,-5.1e-4 20,20 0 0 0 0,-5.2e-4 20,20 0 0 0 0,-5.2e-4 20,20 0 0 0 0,-5.1e-4 20,20 0 0 0 0,-5.2e-4 20,20 0 0 0 0,-5.2e-4 20,20 0 0 0 0,-5.1e-4 h -5.17e-4 a 10,10 0 0 1 -5.17e-4,-0.005 v 0.007 a 10,10 0 0 1 -0.0021,-0.009 h 5.17e-4 a 10,10 0 0 0 10e-4,0.005 20,20 0 0 0 5.16e-4,-0.003 20,20 0 0 0 0,-5.2e-4 20,20 0 0 0 0,-5.2e-4 20,20 0 0 0 0,-5.1e-4 20,20 0 0 0 0,-5.2e-4 20,20 0 0 0 0,-5.2e-4 20,20 0 0 0 0,-5.1e-4 20,20 0 0 0 0,-5.2e-4 20,20 0 0 0 0,-5.2e-4 20,20 0 0 0 0,-5.1e-4 20,20 0 0 0 0,-5.2e-4 20,20 0 0 0 0,-5.2e-4 20,20 0 0 0 0,-5.1e-4 20,20 0 0 0 0,-5.2e-4 20,20 0 0 0 0,-5.2e-4 20,20 0 0 0 0,-5.1e-4 20,20 0 0 0 0,-5.2e-4 20,20 0 0 0 0,-5.2e-4 20,20 0 0 0 0,-5.1e-4 20,20 0 0 0 0,-5.2e-4 20,20 0 0 0 0,-5.2e-4 20,20 0 0 0 0,-5.1e-4 20,20 0 0 0 0,-5.2e-4 20,20 0 0 0 0,-5.2e-4 20,20 0 0 0 0,-5.1e-4 20,20 0 0 0 0,-5.2e-4 20,20 0 0 0 0,-5.2e-4 20,20 0 0 0 0,-5.2e-4 20,20 0 0 0 0,-5.1e-4 20,20 0 0 0 0,-5.2e-4 20,20 0 0 0 0,-5.2e-4 20,20 0 0 0 0,-5.1e-4 20,20 0 0 0 0,-5.2e-4 20,20 0 0 0 0,-5.2e-4 20,20 0 0 0 0,-5.1e-4 20,20 0 0 0 0,-5.2e-4 20,20 0 0 0 -0.03876,-1.21543 20,20 0 0 0 -0.04341,-0.47956 20,20 0 0 0 -0.06925,-0.73484 20,20 0 0 0 -0.09302,-0.61133 20,20 0 0 0 -0.09663,-0.60823 20,20 0 0 0 -0.12609,-0.58704 20,20 0 0 0 -0.13746,-0.61805 20,20 0 0 0 -0.167431,-0.59997 20,20 0 0 0 -0.167949,-0.57774 20,20 0 0 0 -0.211873,-0.61288 20,20 0 0 0 -0.197404,-0.54932 20,20 0 0 0 -0.240812,-0.58085 20,20 0 0 0 -0.241846,-0.55913 20,20 0 0 0 -0.277503,-0.57 20,20 0 0 0 -0.266133,-0.52244 20,20 0 0 0 -0.321944,-0.57051 20,20 0 0 0 -0.294039,-0.49713 20,20 0 0 0 -0.353984,-0.54777 20,20 0 0 0 -0.326595,-0.48007 20,20 0 0 0 -0.381372,-0.51883 20,20 0 0 0 -0.361735,-0.46664 20,20 0 0 0 -0.412378,-0.49455 20,20 0 0 0 -0.385506,-0.4377 20,20 0 0 0 -0.445968,-0.47335 20,20 0 0 0 -0.407727,-0.40773 20,20 0 0 0 -0.484725,-0.45579 20,20 0 0 0 -0.414961,-0.36586 20,20 0 0 0 -0.521416,-0.4346 20,20 0 0 0 -0.438216,-0.34003 20,20 0 0 0 -0.539502,-0.39688 20,20 0 0 0 -0.194303,-0.13281 20,20 0 0 0 -5.17e-4,0 20,20 0 0 0 -0.277502,-0.18862 20,20 0 0 0 -0.550354,-0.35553 20,20 0 0 0 -0.491443,-0.29094 20,20 0 0 0 -0.580843,-0.32763 20,20 0 0 0 -0.49041,-0.25011 20,20 0 0 0 -0.612365,-0.29817 20,20 0 0 0 -0.489376,-0.21188 20,20 0 0 0 -0.654224,-0.27078 20,20 0 0 0 -0.476456,-0.17105 20,20 0 0 0 -0.676445,-0.23358 20,20 0 0 0 -0.516248,-0.14986 20,20 0 0 0 -0.664042,-0.18552 20,20 0 0 0 -0.519865,-0.11627 20,20 0 0 0 -0.685746,-0.14728 20,20 0 0 0 -0.47904,-0.076 20,20 0 0 0 -0.742074,-0.11317 20,20 0 0 0 -0.369486,-0.0341 20,20 0 0 0 -0.854729,-0.078 20,20 0 0 0 -5.16e-4,0 20,20 0 0 0 -0.02429,-5.2e-4 20,20 0 0 0 -1.183391,-0.0357 z" />
      <path
         d="m 1.7310309,347.57335 v 31.67766 a 20,20 0 0 0 0.1571,1.79523 20,20 0 0 0 0,5.2e-4 20,20 0 0 0 0.90227,3.36724 20,20 0 0 0 1.47329,3.15949 20,20 0 0 0 1.99988,2.85564 20,20 0 0 0 2.46497,2.46549 20,20 0 0 0 2.8556401,1.99936 20,20 0 0 0 3.15949,1.47329 20,20 0 0 0 3.36724,0.90227 20,20 0 0 0 5.2e-4,0 20,20 0 0 0 3.47265,0.30386 20,20 0 0 0 3.47318,-0.30386 20,20 0 0 0 3.36723,-0.90227 20,20 0 0 0 3.1595,-1.47329 20,20 0 0 0 5.2e-4,0 20,20 0 0 0 1.1777,-0.82476 25,25 0 0 1 -0.33021,-0.33021 25,25 0 0 1 -1.97094,-2.81482 25,25 0 0 1 -0.52865,-0.75499 25,25 0 0 1 -1.84175,-3.94911 25,25 0 0 1 -0.23254,-0.86765 10,10 0 0 1 -0.0393,0.0393 10,10 0 0 1 -1.77456,1.11569 10,10 0 0 1 -0.12144,0.076 10,10 0 0 1 -1.17202,0.4098 10,10 0 0 1 -0.57826,0.23978 10,10 0 0 1 -0.17054,0.0222 10,10 0 0 1 -0.19275,0.0677 10,10 0 0 1 -2.22519,0.25063 10,10 0 0 1 -2.22518,-0.25063 10,10 0 0 1 -0.19327,-0.0677 10,10 0 0 1 -0.1695,-0.0222 10,10 0 0 1 -0.57568,-0.23823 10,10 0 0 1 -1.17512,-0.41135 10,10 0 0 1 -0.35243,-0.22169 10,10 0 0 1 -0.30851,-0.12764 10,10 0 0 1 -0.47542,-0.36483 10,10 0 0 1 -0.75965,-0.47749 10,10 0 0 1 -0.45372,-0.45372 10,10 0 0 1 -0.3824,-0.29353 10,10 0 0 1 -0.29301,-0.38188 10,10 0 0 1 -0.45423,-0.45424 10,10 0 0 1 -0.47801,-0.76016 10,10 0 0 1 -0.3638,-0.47439 10,10 0 0 1 -0.12713,-0.30747 10,10 0 0 1 -0.22272,-0.35399 10,10 0 0 1 -0.41393,-1.18236 10,10 0 0 1 -0.23513,-0.56844 10,10 0 0 1 -0.0222,-0.16743 10,10 0 0 1 -0.0682,-0.19533 10,10 0 0 1 -0.25063,-2.22519 V 360.2532 347.57335 Z"
         style="fill:url(#linearGradient7);fill-opacity:1;stroke-width:0.264583"
         id="path39" />
      <path
         d="m 76.581311,347.57335 v 31.67766 a 20,20 0 0 0 0.1571,1.79523 20,20 0 0 0 0,5.2e-4 20,20 0 0 0 0.90227,3.36724 20,20 0 0 0 1.47329,3.15949 20,20 0 0 0 1.99988,2.85564 20,20 0 0 0 2.46497,2.46549 20,20 0 0 0 2.85564,1.99936 20,20 0 0 0 3.15949,1.47329 20,20 0 0 0 3.36724,0.90227 20,20 0 0 0 5.2e-4,0 20,20 0 0 0 3.47265,0.30386 20,20 0 0 0 3.47318,-0.30386 20,20 0 0 0 3.367229,-0.90227 20,20 0 0 0 3.1595,-1.47329 20,20 0 0 0 5.2e-4,0 20,20 0 0 0 1.1777,-0.82476 25,25 0 0 1 -0.33021,-0.33021 25,25 0 0 1 -1.97094,-2.81482 25,25 0 0 1 -0.52865,-0.75499 25,25 0 0 1 -1.84175,-3.94911 25,25 0 0 1 -0.23254,-0.86765 10,10 0 0 1 -0.0393,0.0393 10,10 0 0 1 -1.77456,1.11569 10,10 0 0 1 -0.12144,0.076 10,10 0 0 1 -1.172019,0.4098 10,10 0 0 1 -0.57826,0.23978 10,10 0 0 1 -0.17054,0.0222 10,10 0 0 1 -0.19275,0.0677 10,10 0 0 1 -2.22519,0.25063 10,10 0 0 1 -2.22518,-0.25063 10,10 0 0 1 -0.19327,-0.0677 10,10 0 0 1 -0.1695,-0.0222 10,10 0 0 1 -0.57568,-0.23823 10,10 0 0 1 -1.17512,-0.41135 10,10 0 0 1 -0.35243,-0.22169 10,10 0 0 1 -0.30851,-0.12764 10,10 0 0 1 -0.47542,-0.36483 10,10 0 0 1 -0.75965,-0.47749 10,10 0 0 1 -0.45372,-0.45372 10,10 0 0 1 -0.3824,-0.29353 10,10 0 0 1 -0.29301,-0.38188 10,10 0 0 1 -0.45423,-0.45424 10,10 0 0 1 -0.47801,-0.76016 10,10 0 0 1 -0.3638,-0.47439 10,10 0 0 1 -0.12713,-0.30747 10,10 0 0 1 -0.22272,-0.35399 10,10 0 0 1 -0.41393,-1.18236 10,10 0 0 1 -0.23513,-0.56844 10,10 0 0 1 -0.0222,-0.16743 10,10 0 0 1 -0.0682,-0.19533 10,10 0 0 1 -0.25063,-2.22519 V 360.2532 347.57335 Z"
         style="fill:url(#linearGradient8);fill-opacity:1;stroke-width:0.264583"
         id="path39-9" />
      <path
         id="path2"
         style="fill:url(#linearGradient9);fill-opacity:1;stroke-width:0.264583"
         d="m 185.77778,357.47332 0.001,0.008 a 20,20 0 0 0 -1.18339,0.0357 20,20 0 0 0 -0.0243,5.1e-4 20,20 0 0 1 -5.2e-4,0 20,20 0 0 0 -0.85473,0.078 20,20 0 0 0 -0.36949,0.0341 20,20 0 0 0 -0.74207,0.11317 20,20 0 0 0 -0.47904,0.076 20,20 0 0 0 -0.68575,0.14727 20,20 0 0 0 -0.51986,0.11628 20,20 0 0 0 -0.66404,0.18551 20,20 0 0 0 -0.51625,0.14987 20,20 0 0 0 -0.67645,0.23357 20,20 0 0 0 -0.47645,0.17105 20,20 0 0 0 -0.65423,0.27079 20,20 0 0 0 -0.48937,0.21187 20,20 0 0 0 -0.61237,0.29817 20,20 0 0 0 -0.49041,0.25012 20,20 0 0 0 -0.58084,0.32763 20,20 0 0 0 -0.12196,0.0723 v 18.90428 a 20,20 0 0 1 -0.14004,1.603 20,20 0 0 0 0.0367,-0.154 20,20 0 0 0 0.24495,-3.10937 h -0.002 a 10,10 0 0 0 0,-5.2e-4 10,10 0 0 0 0,-5.1e-4 10,10 0 0 0 0,-5.2e-4 10,10 0 0 0 0,-5.2e-4 10,10 0 0 0 0,-5.1e-4 10,10 0 0 0 0,-5.2e-4 10,10 0 0 0 0,-5.2e-4 10,10 0 0 0 0,-5.1e-4 10,10 0 0 0 0,-5.2e-4 10,10 0 0 0 0,-5.2e-4 10,10 0 0 0 0,-5.1e-4 10,10 0 0 0 0,-5.2e-4 10,10 0 0 0 0,-5.2e-4 10,10 0 0 0 0,-5.1e-4 10,10 0 0 0 0,-5.2e-4 10,10 0 0 0 0,-5.2e-4 10,10 0 0 0 0,-5.1e-4 10,10 0 0 0 0,-5.2e-4 10,10 0 0 0 0,-5.2e-4 10,10 0 0 0 0,-5.1e-4 10,10 0 0 0 0,-5.2e-4 10,10 0 0 0 0,-5.2e-4 10,10 0 0 0 0,-5.1e-4 10,10 0 0 0 0,-5.2e-4 10,10 0 0 0 0,-5.2e-4 10,10 0 0 0 0,-5.1e-4 10,10 0 0 0 0,-5.2e-4 10,10 0 0 0 0,-5.2e-4 10,10 0 0 0 0,-5.1e-4 10,10 0 0 0 0,-5.2e-4 10,10 0 0 0 0,-5.2e-4 10,10 0 0 0 0,-5.1e-4 10,10 0 0 0 0,-5.2e-4 10,10 0 0 0 0,-5.2e-4 10,10 0 0 0 0,-5.2e-4 10,10 0 0 0 0,-5.1e-4 10,10 0 0 0 0,-5.2e-4 10,10 0 0 0 0,-5.2e-4 h -5.2e-4 a 10,10 0 0 1 5.2e-4,-0.0119 10,10 0 0 0 0,-5.2e-4 10,10 0 0 0 0,-5.1e-4 10,10 0 0 0 0,-5.2e-4 10,10 0 0 0 0,-5.2e-4 10,10 0 0 0 0,-5.1e-4 10,10 0 0 0 0,-5.2e-4 10,10 0 0 0 0,-5.2e-4 10,10 0 0 0 0,-5.2e-4 10,10 0 0 0 0,-5.1e-4 10,10 0 0 0 0,-5.2e-4 10,10 0 0 0 0,-5.2e-4 10,10 0 0 0 0,-5.1e-4 10,10 0 0 0 0,-5.2e-4 10,10 0 0 0 0,-5.2e-4 10,10 0 0 0 0,-5.1e-4 10,10 0 0 0 0,-5.2e-4 10,10 0 0 0 0,-5.2e-4 10,10 0 0 0 0,-5.1e-4 10,10 0 0 0 0,-5.2e-4 10,10 0 0 0 0,-5.2e-4 10,10 0 0 0 0,-5.1e-4 10,10 0 0 0 0,-5.2e-4 10,10 0 0 0 0,-5.2e-4 10,10 0 0 0 0,-5.1e-4 10,10 0 0 0 0,-5.2e-4 10,10 0 0 0 0,-5.2e-4 10,10 0 0 0 0,-5.1e-4 10,10 0 0 0 0,-5.2e-4 10,10 0 0 0 0,-5.2e-4 10,10 0 0 0 0,-5.1e-4 10,10 0 0 0 0,-5.2e-4 10,10 0 0 0 0,-5.2e-4 10,10 0 0 0 0,-5.1e-4 10,10 0 0 0 0,-5.2e-4 10,10 0 0 0 0,-5.2e-4 10,10 0 0 0 0,-5.1e-4 10,10 0 0 0 0,-5.2e-4 10,10 0 0 0 0,-5.2e-4 10,10 0 0 0 0,-5.1e-4 10,10 0 0 0 0,-5.2e-4 10,10 0 0 0 0,-5.2e-4 10,10 0 0 0 0,-5.2e-4 10,10 0 0 0 0,-5.1e-4 10,10 0 0 0 0,-5.2e-4 10,10 0 0 0 0,-5.2e-4 10,10 0 0 0 0,-5.1e-4 10,10 0 0 0 0,-5.2e-4 10,10 0 0 0 0,-5.2e-4 10,10 0 0 0 0,-5.1e-4 10,10 0 0 0 0,-5.2e-4 10,10 0 0 0 0,-5.2e-4 10,10 0 0 0 0,-5.1e-4 10,10 0 0 0 0,-5.2e-4 10,10 0 0 0 0,-5.2e-4 10,10 0 0 0 0,-5.1e-4 10,10 0 0 0 0,-5.2e-4 10,10 0 0 1 5.2e-4,-0.0372 10,10 0 0 0 0,-5.1e-4 10,10 0 0 0 0,-5.2e-4 10,10 0 0 0 0,-5.2e-4 10,10 0 0 0 0,-5.1e-4 10,10 0 0 0 0,-5.2e-4 10,10 0 0 0 0,-5.2e-4 10,10 0 0 0 0,-5.1e-4 10,10 0 0 0 0,-5.2e-4 10,10 0 0 0 0,-5.2e-4 10,10 0 0 0 0,-5.1e-4 10,10 0 0 0 0,-5.2e-4 10,10 0 0 0 0,-5.2e-4 10,10 0 0 0 0,-5.1e-4 10,10 0 0 0 0,-5.2e-4 10,10 0 0 0 0,-5.2e-4 10,10 0 0 0 0,-5.2e-4 10,10 0 0 0 0,-5.1e-4 10,10 0 0 0 0,-5.2e-4 10,10 0 0 0 0,-5.2e-4 10,10 0 0 0 0,-5.1e-4 10,10 0 0 0 0,-5.2e-4 10,10 0 0 0 0,-5.2e-4 10,10 0 0 0 0,-5.1e-4 10,10 0 0 0 0,-5.2e-4 10,10 0 0 0 0,-5.2e-4 10,10 0 0 0 0,-5.1e-4 10,10 0 0 0 0,-5.2e-4 10,10 0 0 0 0,-5.2e-4 10,10 0 0 0 0,-5.1e-4 10,10 0 0 0 0,-5.2e-4 10,10 0 0 0 0,-5.2e-4 10,10 0 0 0 0,-5.1e-4 10,10 0 0 0 0,-5.2e-4 10,10 0 0 0 0,-5.2e-4 10,10 0 0 0 0,-5.1e-4 10,10 0 0 0 0,-5.2e-4 10,10 0 0 0 0,-5.2e-4 10,10 0 0 0 0,-5.1e-4 10,10 0 0 0 0,-5.2e-4 10,10 0 0 0 0,-5.2e-4 10,10 0 0 0 0,-5.1e-4 10,10 0 0 0 0,-5.2e-4 10,10 0 0 0 0,-5.2e-4 10,10 0 0 0 0,-5.1e-4 10,10 0 0 0 0,-5.2e-4 10,10 0 0 0 0,-5.2e-4 10,10 0 0 0 0,-5.1e-4 10,10 0 0 0 0,-5.2e-4 10,10 0 0 0 0,-5.2e-4 10,10 0 0 0 0,-5.2e-4 10,10 0 0 0 0,-5.1e-4 10,10 0 0 0 0,-5.2e-4 10,10 0 0 0 0,-5.2e-4 10,10 0 0 0 0,-5.1e-4 10,10 0 0 0 0,-5.2e-4 10,10 0 0 0 0,-5.2e-4 10,10 0 0 0 0,-5.1e-4 10,10 0 0 0 0,-5.2e-4 10,10 0 0 0 0,-5.2e-4 10,10 0 0 0 0,-5.1e-4 10,10 0 0 0 0,-5.2e-4 10,10 0 0 0 0,-5.2e-4 10,10 0 0 0 0,-5.1e-4 10,10 0 0 0 0,-5.2e-4 10,10 0 0 0 0,-5.2e-4 10,10 0 0 0 0,-5.1e-4 10,10 0 0 0 0,-5.2e-4 10,10 0 0 0 0,-5.2e-4 10,10 0 0 0 0,-5.1e-4 10,10 0 0 0 0,-5.2e-4 10,10 0 0 0 0,-5.2e-4 10,10 0 0 0 0,-5.1e-4 10,10 0 0 0 0,-5.2e-4 10,10 0 0 0 0,-5.2e-4 10,10 0 0 0 0,-5.1e-4 10,10 0 0 0 0,-5.2e-4 10,10 0 0 1 5.1e-4,-0.0377 10,10 0 0 1 5.2e-4,-0.0372 10,10 0 0 1 10e-4,-0.0377 10,10 0 0 1 0.001,-0.0377 10,10 0 0 1 5.1e-4,-0.0372 10,10 0 0 1 5.2e-4,-0.0377 10,10 0 0 1 0.002,-0.0377 10,10 0 0 1 0.001,-0.0372 10,10 0 0 1 0.002,-0.0377 10,10 0 0 1 0.002,-0.0377 10,10 0 0 1 0.002,-0.0372 10,10 0 0 1 0.002,-0.0377 10,10 0 0 1 0.002,-0.0372 10,10 0 0 1 0.002,-0.0372 10,10 0 0 1 0.003,-0.0377 10,10 0 0 1 0.003,-0.0372 10,10 0 0 1 0.003,-0.0372 10,10 0 0 1 0.003,-0.0367 10,10 0 0 1 0.003,-0.0372 10,10 0 0 1 0.003,-0.0196 10,10 0 0 1 0.001,-0.0269 10,10 0 0 1 0.0408,-0.31471 10,10 0 0 1 0.0574,-0.4594 10,10 0 0 1 0.008,-0.0398 10,10 0 0 1 0.007,-0.0506 10,10 0 0 1 0.0698,-0.31316 10,10 0 0 1 0.0842,-0.40566 10,10 0 0 1 0.0207,-0.0677 10,10 0 0 1 0.015,-0.0651 10,10 0 0 1 0.0894,-0.28422 10,10 0 0 1 0.11162,-0.37466 10,10 0 0 1 0.0336,-0.0853 10,10 0 0 1 0.0274,-0.0889 10,10 0 0 1 0.11679,-0.28267 10,10 0 0 1 0.12299,-0.31367 10,10 0 0 1 0.0491,-0.0992 10,10 0 0 1 0.0455,-0.11007 10,10 0 0 1 0.13229,-0.25477 10,10 0 0 1 0.13643,-0.27853 10,10 0 0 1 0.0708,-0.11886 10,10 0 0 1 0.0641,-0.12195 10,10 0 0 1 0.14159,-0.22221 10,10 0 0 1 0.14728,-0.24702 10,10 0 0 1 0.0956,-0.13384 10,10 0 0 1 0.0837,-0.13229 10,10 0 0 1 0.14366,-0.18759 10,10 0 0 1 0.15658,-0.2191 10,10 0 0 1 0.12402,-0.14625 10,10 0 0 1 0.10697,-0.13952 10,10 0 0 1 0.14935,-0.16278 10,10 0 0 1 0.15399,-0.18191 10,10 0 0 1 0.14987,-0.14986 10,10 0 0 1 0.1359,-0.14831 10,10 0 0 1 0.14832,-0.13591 10,10 0 0 1 0.15037,-0.15038 10,10 0 0 1 0.18191,-0.15451 10,10 0 0 1 0.16278,-0.14883 10,10 0 0 1 0.11058,-0.0858 10,10 0 0 0 5.2e-4,0 25,25 0 0 1 0,-5.2e-4 10,10 0 0 1 0.0289,-0.0217 v -5.2e-4 a 10,10 0 0 1 0.14521,-0.12299 10,10 0 0 1 0.21394,-0.15244 10,10 0 0 1 0.19224,-0.1478 10,10 0 0 1 0.13591,-0.0868 10,10 0 0 1 0.13074,-0.093 10,10 0 0 1 0.24443,-0.14573 10,10 0 0 1 0.22479,-0.14314 10,10 0 0 1 0.12144,-0.063 10,10 0 0 1 0.11937,-0.0713 10,10 0 0 1 0.28422,-0.13849 10,10 0 0 1 0.24857,-0.12971 10,10 0 0 1 0.10645,-0.0434 10,10 0 0 1 0.10335,-0.0506 10,10 0 0 1 0.32711,-0.12764 10,10 0 0 1 0.26924,-0.11163 10,10 0 0 1 0.0837,-0.0263 10,10 0 0 1 0.0894,-0.0346 10,10 0 0 1 0.37104,-0.11059 10,10 0 0 1 0.28732,-0.0904 10,10 0 0 1 0.0682,-0.015 10,10 0 0 1 0.0651,-0.0196 10,10 0 0 1 0.41858,-0.0879 10,10 0 0 1 0.2992,-0.0661 10,10 0 0 1 0.0465,-0.006 10,10 0 0 1 0.045,-0.009 10,10 0 0 1 0.48162,-0.0599 10,10 0 0 1 0.29249,-0.0388 10,10 0 0 1 0.0258,-0.001 10,10 0 0 1 0.0202,-0.003 10,10 0 0 1 0.82579,-0.0341 10,10 0 0 1 2.22519,0.25063 10,10 0 0 1 0.19327,0.0677 10,10 0 0 1 0.1695,0.0217 10,10 0 0 1 0.57568,0.23823 10,10 0 0 1 1.17512,0.41134 10,10 0 0 1 0.35295,0.22169 10,10 0 0 1 0.30799,0.12764 v -10.62763 a 20,20 0 0 0 -1.52704,-0.40927 20,20 0 0 0 -1.72961,-0.2279 20,20 0 0 0 -1.74253,-0.076 z m -10.14047,2.77967 a 20,20 0 0 0 -0.36948,0.21859 20,20 0 0 0 -0.55036,0.35554 20,20 0 0 0 -0.2775,0.18862 20,20 0 0 1 -5.2e-4,0 20,20 0 0 0 -0.1943,0.13281 20,20 0 0 0 -0.5395,0.39687 20,20 0 0 0 -0.43822,0.34003 20,20 0 0 0 -0.52141,0.4346 20,20 0 0 0 -0.41496,0.36587 20,20 0 0 0 -0.48473,0.45579 20,20 0 0 0 -0.40773,0.40772 20,20 0 0 0 -0.44596,0.47336 20,20 0 0 0 -0.38551,0.4377 20,20 0 0 0 -0.41238,0.49454 20,20 0 0 0 -0.36173,0.46664 20,20 0 0 0 -0.38137,0.51883 20,20 0 0 0 -0.3266,0.48008 20,20 0 0 0 -0.35398,0.54777 20,20 0 0 0 -0.29404,0.49712 20,20 0 0 0 -0.32195,0.57051 20,20 0 0 0 -0.26613,0.52245 20,20 0 0 0 -0.2775,0.56999 20,20 0 0 0 -0.24185,0.55914 20,20 0 0 0 -0.24081,0.58084 20,20 0 0 0 -0.1974,0.54932 20,20 0 0 0 -0.21188,0.61289 20,20 0 0 0 -0.16795,0.57774 20,20 0 0 0 -0.16743,0.59996 20,20 0 0 0 -0.13746,0.61805 20,20 0 0 0 -0.12609,0.58705 20,20 0 0 0 -0.0966,0.60823 20,20 0 0 0 -0.093,0.61133 20,20 0 0 0 -0.0692,0.73484 20,20 0 0 0 -0.0434,0.47956 20,20 0 0 0 -0.0341,1.0697 v 0.16278 a 10,10 0 0 1 -5.2e-4,0.0899 10,10 0 0 1 -0.001,0.0894 10,10 0 0 1 -0.002,0.0899 10,10 0 0 1 -0.003,0.0899 10,10 0 0 1 -0.004,0.0894 10,10 0 0 1 -0.004,0.0899 10,10 0 0 1 -0.005,0.0894 10,10 0 0 1 -0.006,0.0894 10,10 0 0 1 -0.007,0.0899 10,10 0 0 1 -0.008,0.0894 10,10 0 0 1 -0.008,0.0894 10,10 0 0 1 -0.009,0.0889 10,10 0 0 1 -0.0103,0.0894 10,10 0 0 1 -0.0108,0.0889 10,10 0 0 1 -0.0114,0.0894 10,10 0 0 1 -0.0124,0.0889 10,10 0 0 1 -0.0134,0.0884 10,10 0 0 1 -0.0139,0.0889 10,10 0 0 1 -0.015,0.0884 10,10 0 0 1 -0.0155,0.0884 10,10 0 0 1 -0.0165,0.0884 10,10 0 0 1 -0.0171,0.0879 10,10 0 0 1 -0.0181,0.0884 10,10 0 0 1 -0.0186,0.0873 10,10 0 0 1 -0.0196,0.0879 10,10 0 0 1 -0.0682,0.19533 10,10 0 0 1 -0.0222,0.16743 10,10 0 0 1 -0.23513,0.56844 10,10 0 0 1 -0.41392,1.18236 10,10 0 0 1 -0.22273,0.35399 10,10 0 0 1 -0.12712,0.30747 10,10 0 0 1 -0.36381,0.47439 10,10 0 0 1 -0.20877,0.33228 10,10 0 0 1 -0.26923,0.42788 10,10 0 0 0 0,5.2e-4 10,10 0 0 1 -0.45424,0.45372 10,10 0 0 1 -0.002,0.002 10,10 0 0 1 -0.29145,0.37982 10,10 0 0 1 -0.38034,0.29198 10,10 0 0 1 -0.002,0.002 10,10 0 0 1 -0.45372,0.45372 10,10 0 0 1 0,5.2e-4 10,10 0 0 1 -0.75964,0.47697 10,10 0 0 1 -0.002,0.002 10,10 0 0 1 -0.47335,0.36329 10,10 0 0 1 -0.30696,0.12712 10,10 0 0 1 -0.002,5.2e-4 10,10 0 0 1 -0.35243,0.22169 10,10 0 0 1 -1.17512,0.41134 10,10 0 0 1 -0.57568,0.23823 10,10 0 0 1 -0.16898,0.0222 10,10 0 0 0 -5.2e-4,0 10,10 0 0 1 -0.19327,0.0677 10,10 0 0 1 -2.22518,0.25063 10,10 0 0 1 -2.22519,-0.25063 10,10 0 0 0 -5.2e-4,0 10,10 0 0 1 -0.19223,-0.0677 10,10 0 0 1 -0.002,-5.2e-4 10,10 0 0 1 -0.16847,-0.0217 10,10 0 0 1 -0.57154,-0.23668 10,10 0 0 1 -1.17874,-0.41289 10,10 0 0 0 -5.2e-4,0 10,10 0 0 1 -0.11937,-0.0749 10,10 0 0 1 -0.002,-0.001 10,10 0 0 1 -0.008,-0.005 10,10 0 0 1 -1.76733,-1.11001 10,10 0 0 1 -0.0388,-0.0382 25,25 0 0 1 -0.23254,0.86661 25,25 0 0 1 -0.83457,2.01486 25,25 0 0 1 -1.00718,1.93425 25,25 0 0 1 -0.52865,0.75499 25,25 0 0 1 -1.97094,2.81482 25,25 0 0 1 -0.33021,0.33021 20,20 0 0 0 0.43563,0.30489 20,20 0 0 0 1.44333,0.8847 20,20 0 0 0 0.40359,0.20981 20,20 0 0 0 2.53266,1.04903 20,20 0 0 0 0.416,0.13126 20,20 0 0 0 2.71921,0.65319 20,20 0 0 0 0.29145,0.0377 20,20 0 0 0 2.93316,0.231 20,20 0 0 0 2.94866,-0.23255 20,20 0 0 0 0.26768,-0.0346 20,20 0 0 0 2.75539,-0.66146 20,20 0 0 0 0.36638,-0.11575 20,20 0 0 0 2.58693,-1.07126 20,20 0 0 0 0.33279,-0.17311 20,20 0 0 0 2.42931,-1.4888 20,20 0 0 0 0.18862,-0.14469 20,20 0 0 0 2.26601,-1.93529 20,20 0 0 0 0.83871,-0.98236 20,20 0 0 0 1.09761,-1.28468 20,20 0 0 0 0.14314,-0.18655 20,20 0 0 0 0.8046,-1.31258 h -5.1e-4 a 20,20 0 0 0 0.68833,-1.12345 20,20 0 0 0 0.16794,-0.32246 20,20 0 0 0 1.07642,-2.59881 20,20 0 0 0 0.11008,-0.34933 20,20 0 0 0 0.64802,-2.69906 20,20 0 0 0 0.14004,-1.603 z" />
      <path
         id="path37-4"
         style="fill:url(#linearGradient10);fill-opacity:1;stroke-width:0.264583"
         d="m 136.43864,367.84947 v 9.62938 h 0.003 a 10,10 0 0 1 0,5.2e-4 10,10 0 0 1 0,5.2e-4 10,10 0 0 1 0,5.1e-4 10,10 0 0 1 0,5.2e-4 10,10 0 0 1 0,5.2e-4 10,10 0 0 1 0,5.1e-4 10,10 0 0 1 0,5.2e-4 10,10 0 0 1 0,5.2e-4 10,10 0 0 1 0,5.1e-4 10,10 0 0 1 0,5.2e-4 10,10 0 0 1 0,5.2e-4 10,10 0 0 1 0,5.1e-4 10,10 0 0 1 0,5.2e-4 10,10 0 0 1 0,5.2e-4 10,10 0 0 1 0,5.1e-4 10,10 0 0 1 0,5.2e-4 10,10 0 0 1 0,5.2e-4 10,10 0 0 1 0,5.1e-4 10,10 0 0 1 0,5.2e-4 10,10 0 0 1 0,5.2e-4 10,10 0 0 1 0,5.1e-4 10,10 0 0 1 0,5.2e-4 10,10 0 0 1 0,5.2e-4 10,10 0 0 1 0,5.1e-4 10,10 0 0 1 0,5.2e-4 10,10 0 0 1 0,5.2e-4 10,10 0 0 1 0,5.2e-4 10,10 0 0 1 0,5.1e-4 10,10 0 0 1 0,5.2e-4 10,10 0 0 1 0,5.2e-4 10,10 0 0 1 0,5.1e-4 10,10 0 0 1 0,5.2e-4 10,10 0 0 1 0,5.2e-4 10,10 0 0 1 0,5.1e-4 10,10 0 0 1 0,5.2e-4 10,10 0 0 1 0,5.2e-4 10,10 0 0 1 0,5.1e-4 10,10 0 0 1 0,5.2e-4 10,10 0 0 1 0,5.2e-4 10,10 0 0 1 0,5.1e-4 10,10 0 0 1 0,5.2e-4 10,10 0 0 1 0,5.2e-4 10,10 0 0 1 0,5.1e-4 10,10 0 0 1 0,5.2e-4 10,10 0 0 1 0,5.2e-4 10,10 0 0 1 0,5.1e-4 10,10 0 0 1 0,5.2e-4 10,10 0 0 1 0,5.2e-4 10,10 0 0 1 0,5.1e-4 10,10 0 0 1 0,5.2e-4 10,10 0 0 1 0,5.2e-4 10,10 0 0 1 0,5.1e-4 10,10 0 0 1 0,5.2e-4 10,10 0 0 1 0,5.2e-4 10,10 0 0 1 0,5.1e-4 10,10 0 0 1 0,5.2e-4 10,10 0 0 1 0,5.2e-4 10,10 0 0 1 0,5.1e-4 10,10 0 0 1 0,5.2e-4 10,10 0 0 1 0,5.2e-4 10,10 0 0 1 0,5.2e-4 10,10 0 0 1 0,5.1e-4 10,10 0 0 1 0,5.2e-4 10,10 0 0 1 0,5.2e-4 10,10 0 0 1 0,5.1e-4 10,10 0 0 1 0,5.2e-4 10,10 0 0 1 0,5.2e-4 10,10 0 0 1 0,5.1e-4 10,10 0 0 1 0,5.2e-4 10,10 0 0 1 0,5.2e-4 10,10 0 0 1 0,5.1e-4 10,10 0 0 1 0,5.2e-4 10,10 0 0 1 0,5.2e-4 10,10 0 0 1 0,5.1e-4 10,10 0 0 1 0,5.2e-4 10,10 0 0 1 0,5.2e-4 10,10 0 0 1 0,5.1e-4 10,10 0 0 1 0,5.2e-4 10,10 0 0 1 0,5.2e-4 10,10 0 0 1 0,5.1e-4 10,10 0 0 1 0,5.2e-4 10,10 0 0 1 0,5.2e-4 10,10 0 0 1 0,5.1e-4 10,10 0 0 1 0,5.2e-4 10,10 0 0 1 0,5.2e-4 10,10 0 0 1 0,5.1e-4 10,10 0 0 1 0,5.2e-4 10,10 0 0 1 0,5.2e-4 10,10 0 0 1 0,5.1e-4 10,10 0 0 1 0,5.2e-4 10,10 0 0 1 0,5.2e-4 10,10 0 0 1 0,5.1e-4 10,10 0 0 1 0,5.2e-4 10,10 0 0 1 0,5.2e-4 10,10 0 0 1 0,5.2e-4 10,10 0 0 1 0,5.1e-4 10,10 0 0 1 0,5.2e-4 10,10 0 0 1 0,5.2e-4 10,10 0 0 1 0,5.1e-4 10,10 0 0 1 0,5.2e-4 10,10 0 0 1 0,5.2e-4 10,10 0 0 1 0,5.1e-4 10,10 0 0 1 0,5.2e-4 10,10 0 0 1 0,5.2e-4 10,10 0 0 1 0,5.1e-4 10,10 0 0 1 0,5.2e-4 10,10 0 0 1 0,5.2e-4 10,10 0 0 1 0,5.1e-4 10,10 0 0 1 0,5.2e-4 10,10 0 0 1 0,5.2e-4 10,10 0 0 1 0,5.1e-4 10,10 0 0 1 0,5.2e-4 10,10 0 0 1 0,5.2e-4 10,10 0 0 1 0,5.1e-4 10,10 0 0 1 0,5.2e-4 10,10 0 0 1 0,5.2e-4 10,10 0 0 1 0,5.1e-4 10,10 0 0 1 0,5.2e-4 10,10 0 0 1 0,5.2e-4 10,10 0 0 1 0,5.1e-4 10,10 0 0 1 0,5.2e-4 10,10 0 0 1 0,5.2e-4 10,10 0 0 1 0,5.1e-4 10,10 0 0 1 0,5.2e-4 10,10 0 0 1 0,5.2e-4 10,10 0 0 1 0,5.1e-4 10,10 0 0 1 0,5.2e-4 10,10 0 0 1 0,5.2e-4 10,10 0 0 1 0,5.2e-4 10,10 0 0 1 0,5.1e-4 10,10 0 0 1 0,5.2e-4 10,10 0 0 1 0,5.2e-4 10,10 0 0 1 0,5.1e-4 10,10 0 0 1 0,5.2e-4 10,10 0 0 1 0,5.2e-4 10,10 0 0 1 0,5.1e-4 10,10 0 0 1 0,5.2e-4 10,10 0 0 1 0,5.2e-4 10,10 0 0 1 0,5.1e-4 10,10 0 0 1 0,5.2e-4 10,10 0 0 1 0,5.2e-4 10,10 0 0 1 0,5.1e-4 10,10 0 0 1 0,5.2e-4 10,10 0 0 1 0,5.2e-4 10,10 0 0 1 0,5.1e-4 10,10 0 0 1 0,5.2e-4 10,10 0 0 1 0,5.2e-4 10,10 0 0 1 0,5.1e-4 10,10 0 0 1 0,5.2e-4 10,10 0 0 1 0,5.2e-4 10,10 0 0 1 0,5.1e-4 10,10 0 0 1 0,5.2e-4 10,10 0 0 1 0,5.2e-4 10,10 0 0 1 0,5.1e-4 10,10 0 0 1 0,5.2e-4 10,10 0 0 1 0,5.2e-4 10,10 0 0 1 0,5.1e-4 10,10 0 0 1 0,5.2e-4 10,10 0 0 1 0,5.2e-4 10,10 0 0 1 0,5.1e-4 10,10 0 0 1 0,5.2e-4 10,10 0 0 1 0,5.2e-4 10,10 0 0 1 0,5.2e-4 10,10 0 0 1 0,5.1e-4 10,10 0 0 1 0,5.2e-4 10,10 0 0 1 0,5.2e-4 10,10 0 0 1 0,5.1e-4 10,10 0 0 1 0,5.2e-4 10,10 0 0 1 0,5.2e-4 10,10 0 0 1 0,5.1e-4 10,10 0 0 1 0,5.2e-4 10,10 0 0 1 0,5.2e-4 10,10 0 0 1 0,5.1e-4 10,10 0 0 1 0,5.2e-4 10,10 0 0 1 0,5.2e-4 10,10 0 0 1 0,5.1e-4 10,10 0 0 1 0,5.2e-4 10,10 0 0 1 0,5.2e-4 10,10 0 0 1 0,5.1e-4 10,10 0 0 1 0,5.2e-4 10,10 0 0 1 0,5.2e-4 10,10 0 0 1 0,5.1e-4 10,10 0 0 1 0,5.2e-4 10,10 0 0 1 0,5.2e-4 10,10 0 0 1 0,5.1e-4 10,10 0 0 1 -5.1e-4,0.005 v 10e-4 a 10,10 0 0 1 -10e-4,0.10231 10,10 0 0 1 -0.003,0.10181 10,10 0 0 1 -0.004,0.1018 10,10 0 0 1 -0.005,0.10232 10,10 0 0 1 -0.006,0.1018 10,10 0 0 1 -0.007,0.1018 10,10 0 0 1 -0.008,0.10129 10,10 0 0 1 -0.009,0.1018 10,10 0 0 1 -0.0103,0.10129 10,10 0 0 1 -0.0108,0.1018 10,10 0 0 1 -0.0119,0.10129 10,10 0 0 1 -0.0129,0.10128 10,10 0 0 1 -0.0145,0.10077 10,10 0 0 1 -0.015,0.10077 10,10 0 0 1 -0.016,0.10077 10,10 0 0 1 -0.017,0.10077 10,10 0 0 1 -0.0181,0.10025 10,10 0 0 1 -0.0191,0.10025 10,10 0 0 1 -0.0202,0.0997 10,10 0 0 1 -0.0212,0.0992 10,10 0 0 1 -0.0222,0.0997 10,10 0 0 1 -0.74001,2.11357 10,10 0 0 1 -1.19114,1.89652 10,10 0 0 1 -1.58337,1.58337 10,10 0 0 1 -1.89601,1.19114 10,10 0 0 1 -2.11356,0.73949 10,10 0 0 1 -2.22571,0.25063 10,10 0 0 1 -2.22518,-0.25063 10,10 0 0 1 -2.11357,-0.73949 10,10 0 0 1 -1.89601,-1.19114 10,10 0 0 1 -1.58336,-1.58337 10,10 0 0 1 -1.19114,-1.89652 10,10 0 0 1 -0.74001,-2.11357 10,10 0 0 1 -0.24443,-2.12286 h 0.003 v -9.62939 H 106.4471 v 9.62939 h 0.003 a 20,20 0 0 0 0.23822,3.0272 20,20 0 0 0 0.73226,3.05149 20,20 0 0 0 1.20096,2.89957 20,20 0 0 0 0.79427,1.29604 h -5.2e-4 a 20,20 0 0 0 0.84594,1.37976 20,20 0 0 0 1.19941,1.40405 20,20 0 0 0 0.83871,0.98237 20,20 0 0 0 2.38642,2.03812 20,20 0 0 0 2.6758,1.63969 20,20 0 0 0 2.89956,1.20096 20,20 0 0 0 3.0515,0.73278 20,20 0 0 0 3.12849,0.24649 20,20 0 0 0 3.12901,-0.24649 20,20 0 0 0 3.05149,-0.73278 20,20 0 0 0 2.89957,-1.20096 20,20 0 0 0 2.6758,-1.63969 20,20 0 0 0 2.38642,-2.03812 20,20 0 0 0 2.03811,-2.38642 20,20 0 0 0 1.64021,-2.6758 20,20 0 0 0 1.20096,-2.89957 20,20 0 0 0 0.73226,-3.05149 20,20 0 0 0 0.24649,-3.12901 h -0.003 v -9.62938 z" />
    </g>
  </g>
</svg>
